<svg width="20" height="20" viewBox="0 0 20 20" fill="none" xmlns="http://www.w3.org/2000/svg">
<path d="M13.5417 5H2.29175C2.12599 5 1.96702 5.06585 1.84981 5.18306C1.7326 5.30027 1.66675 5.45924 1.66675 5.625V16.875C1.66675 17.0408 1.7326 17.1997 1.84981 17.3169C1.96702 17.4342 2.12599 17.5 2.29175 17.5H13.5417C13.7075 17.5 13.8665 17.4342 13.9837 17.3169C14.1009 17.1997 14.1667 17.0408 14.1667 16.875V5.625C14.1667 5.45924 14.1009 5.30027 13.9837 5.18306C13.8665 5.06585 13.7075 5 13.5417 5ZM12.9167 16.25H2.91675V6.25H12.9167V16.25ZM16.6667 3.125V14.375C16.6667 14.5408 16.6009 14.6997 16.4837 14.8169C16.3665 14.9342 16.2075 15 16.0417 15C15.876 15 15.717 14.9342 15.5998 14.8169C15.4826 14.6997 15.4167 14.5408 15.4167 14.375V3.75H4.79175C4.62599 3.75 4.46702 3.68415 4.34981 3.56694C4.2326 3.44973 4.16675 3.29076 4.16675 3.125C4.16675 2.95924 4.2326 2.80027 4.34981 2.68306C4.46702 2.56585 4.62599 2.5 4.79175 2.5H16.0417C16.2075 2.5 16.3665 2.56585 16.4837 2.68306C16.6009 2.80027 16.6667 2.95924 16.6667 3.125Z" fill="#D4D4D8"/>
</svg>
